# xmcd
#
# Track frame offsets:
#	150
#	24720
#	46985
#	53505
#	74337
#	88540
#	110665
#	129147
#	158230
#	181370
#	205050
#	219570
#	234782
#	258280
#	296807
#	312495
#
# Disc length: 4363 seconds
# Revision: 1
# Processed by: cddbd v1.5.2PL0 Copyright (c) Steve Scherf et al.
# Submitted via: dBpowerAMP V12.0
#
DISCID=df110910
DTITLE=B.B. King - King of the Blues [Disc 3]
DYEAR=1992
DGENRE=Blues
TTITLE0=The Thrill Is Gone
TTITLE1=Confessin' The Blues
TTITLE2=Nobody Loves But My Mother
TTITLE3=Hummingbird
TTITLE4=Ask Me No Questions
TTITLE5=Chains And Things
TTITLE6=Eyesight To The Blind (Live)
TTITLE7=Niji Baby (Live)
TTITLE8=Blue Shadows
TTITLE9=Ghetto Woman
TTITLE10=Ain't Nobody Home
TTITLE11=I Got Some Help I Don't Need (7" Version)
TTITLE12=Five Long Years
TTITLE13=To Know You Is To Love You
TTITLE14=I Like To Live The Love
TTITLE15=Don't Make Me Pay For His Mistakes
EXTD=
EXTT0=
EXTT1=
EXTT2=
EXTT3=
EXTT4=
EXTT5=
EXTT6=
EXTT7=
EXTT8=
EXTT9=
EXTT10=
EXTT11=
EXTT12=
EXTT13=
EXTT14=
EXTT15=
PLAYORDER=
